<svg width="40" height="40" viewBox="0 0 40 40" fill="none" xmlns="http://www.w3.org/2000/svg">
<mask id="mask0_7026_11339" style="mask-type:alpha" maskUnits="userSpaceOnUse" x="0" y="0" width="40" height="40">
<rect width="40" height="40" fill="#D9D9D9"/>
</mask>
<g mask="url(#mask0_7026_11339)">
<path d="M14.0254 20L27.0034 32.9775C27.2817 33.2561 27.4195 33.5963 27.4167 33.9979C27.4139 34.3996 27.2732 34.7454 26.9946 35.0354C26.7118 35.3252 26.3678 35.47 25.9625 35.47C25.5572 35.47 25.2097 35.3252 24.92 35.0354L11.7117 21.8246C11.4517 21.5649 11.2622 21.2761 11.1433 20.9583C11.0242 20.6406 10.9646 20.3211 10.9646 20C10.9646 19.6789 11.0242 19.3595 11.1433 19.0417C11.2622 18.7239 11.4517 18.4315 11.7117 18.1646L24.9475 4.93918C25.2303 4.64918 25.5711 4.50849 25.97 4.5171C26.3689 4.52571 26.7134 4.67488 27.0034 4.9646C27.2817 5.2546 27.4238 5.59765 27.4296 5.99376C27.4352 6.3896 27.2931 6.73251 27.0034 7.02251L14.0254 20Z" fill="black"/>
</g>
</svg>
