<svg preserveAspectRatio="none" width="100%" height="100%" overflow="visible" style="display: block;" viewBox="0 0 24 24" fill="none" xmlns="http://www.w3.org/2000/svg">
<g id="note_stack_add">
<mask id="mask0_0_11" style="mask-type:alpha" maskUnits="userSpaceOnUse" x="0" y="0" width="24" height="24">
<rect id="Bounding box" width="24" height="24" fill="var(--fill-0, #D9D9D9)"/>
</mask>
<g mask="url(#mask0_0_11)">
<path id="note_stack_add_2" d="M7 20V8.975C7 8.425 7.2 7.95833 7.6 7.575C8 7.19167 8.475 7 9.025 7H20C20.55 7 21.0208 7.19583 21.4125 7.5875C21.8042 7.97917 22 8.45 22 9V16.175C22 16.4417 21.95 16.6958 21.85 16.9375C21.75 17.1792 21.6083 17.3917 21.425 17.575L17.575 21.425C17.3917 21.6083 17.1792 21.75 16.9375 21.85C16.6958 21.95 16.4417 22 16.175 22H9C8.45 22 7.97917 21.8042 7.5875 21.4125C7.19583 21.0208 7 20.55 7 20ZM2.025 6.25C1.925 5.7 2.03333 5.20417 2.35 4.7625C2.66667 4.32083 3.1 4.05 3.65 3.95L14.5 2.025C15.05 1.925 15.5458 2.03333 15.9875 2.35C16.4292 2.66667 16.7 3.1 16.8 3.65L17.05 5H9C7.9 5 6.95833 5.39167 6.175 6.175C5.39167 6.95833 5 7.9 5 9V18.55C4.73333 18.4 4.50417 18.2 4.3125 17.95C4.12083 17.7 4 17.4167 3.95 17.1L2.025 6.25ZM13.5 15.5V17.5C13.5 17.7833 13.5958 18.0208 13.7875 18.2125C13.9792 18.4042 14.2167 18.5 14.5 18.5C14.7833 18.5 15.0208 18.4042 15.2125 18.2125C15.4042 18.0208 15.5 17.7833 15.5 17.5V15.5H17.5C17.7833 15.5 18.0208 15.4042 18.2125 15.2125C18.4042 15.0208 18.5 14.7833 18.5 14.5C18.5 14.2167 18.4042 13.9792 18.2125 13.7875C18.0208 13.5958 17.7833 13.5 17.5 13.5H15.5V11.5C15.5 11.2167 15.4042 10.9792 15.2125 10.7875C15.0208 10.5958 14.7833 10.5 14.5 10.5C14.2167 10.5 13.9792 10.5958 13.7875 10.7875C13.5958 10.9792 13.5 11.2167 13.5 11.5V13.5H11.5C11.2167 13.5 10.9792 13.5958 10.7875 13.7875C10.5958 13.9792 10.5 14.2167 10.5 14.5C10.5 14.7833 10.5958 15.0208 10.7875 15.2125C10.9792 15.4042 11.2167 15.5 11.5 15.5H13.5Z" fill="var(--fill-0, white)"/>
</g>
</g>
</svg>
