<svg preserveAspectRatio="none" width="100%" height="100%" overflow="visible" style="display: block;" viewBox="0 0 24 24" fill="none" xmlns="http://www.w3.org/2000/svg">
<g id="waving_hand">
<mask id="mask0_0_8" style="mask-type:alpha" maskUnits="userSpaceOnUse" x="0" y="0" width="24" height="24">
<rect id="Bounding box" width="24" height="24" fill="var(--fill-0, #D9D9D9)"/>
</mask>
<g mask="url(#mask0_0_8)">
<path id="waving_hand_2" d="M17 23.025C16.7167 23.025 16.4792 22.925 16.2875 22.725C16.0958 22.525 16 22.2833 16 22C16 21.7167 16.0958 21.4792 16.2875 21.2875C16.4792 21.0958 16.7167 21 17 21C18.1 21 19.0417 20.6083 19.825 19.825C20.6083 19.0417 21 18.1 21 17C21 16.7167 21.1 16.475 21.3 16.275C21.5 16.075 21.7417 15.975 22.025 15.975C22.3083 15.975 22.5458 16.075 22.7375 16.275C22.9292 16.475 23.025 16.7167 23.025 17C23.025 18.6667 22.4375 20.0875 21.2625 21.2625C20.0875 22.4375 18.6667 23.025 17 23.025ZM2 8C1.71667 8 1.475 7.90417 1.275 7.7125C1.075 7.52083 0.975 7.28333 0.975 7C0.975 5.33333 1.5625 3.9125 2.7375 2.7375C3.9125 1.5625 5.33333 0.975 7 0.975C7.28333 0.975 7.525 1.07083 7.725 1.2625C7.925 1.45417 8.025 1.69167 8.025 1.975C8.025 2.25833 7.925 2.5 7.725 2.7C7.525 2.9 7.28333 3 7 3C5.9 3 4.95833 3.39167 4.175 4.175C3.39167 4.95833 3 5.9 3 7C3 7.28333 2.90417 7.52083 2.7125 7.7125C2.52083 7.90417 2.28333 8 2 8ZM5.3 18.725C3.78333 17.2083 3.025 15.3833 3.025 13.25C3.025 11.1167 3.78333 9.29167 5.3 7.775L6.75 6.3C6.83333 6.21667 6.93333 6.175 7.05 6.175C7.16667 6.175 7.26667 6.21667 7.35 6.3C7.83333 6.78333 8.075 7.37083 8.075 8.0625C8.075 8.75417 7.83333 9.34167 7.35 9.825L7 10.175C6.8 10.375 6.7 10.6125 6.7 10.8875C6.7 11.1625 6.8 11.4 7 11.6L7.9 12.5C8.33333 12.9333 8.55 13.4583 8.55 14.075C8.55 14.6917 8.33333 15.2167 7.9 15.65C7.75 15.8 7.675 15.9792 7.675 16.1875C7.675 16.3958 7.75 16.575 7.9 16.725C8.05 16.875 8.22917 16.95 8.4375 16.95C8.64583 16.95 8.825 16.875 8.975 16.725C9.70833 15.9917 10.075 15.1125 10.075 14.0875C10.075 13.0625 9.7 12.175 8.95 11.425L8.4 10.875C8.83333 10.4417 9.14167 9.95417 9.325 9.4125C9.50833 8.87083 9.58333 8.31667 9.55 7.75L14.025 3.275C14.225 3.075 14.4625 2.975 14.7375 2.975C15.0125 2.975 15.25 3.075 15.45 3.275C15.65 3.475 15.75 3.7125 15.75 3.9875C15.75 4.2625 15.65 4.5 15.45 4.7L10.775 9.375L11.825 10.425L17.85 4.425C18.05 4.225 18.2833 4.125 18.55 4.125C18.8167 4.125 19.05 4.225 19.25 4.425C19.45 4.625 19.55 4.85833 19.55 5.125C19.55 5.39167 19.45 5.625 19.25 5.825L13.25 11.85L14.3 12.9L19.6 7.6C19.8 7.4 20.0375 7.3 20.3125 7.3C20.5875 7.3 20.825 7.4 21.025 7.6C21.225 7.8 21.325 8.0375 21.325 8.3125C21.325 8.5875 21.225 8.825 21.025 9.025L15.725 14.325L16.775 15.375L20.825 11.325C21.025 11.125 21.2625 11.025 21.5375 11.025C21.8125 11.025 22.05 11.125 22.25 11.325C22.45 11.525 22.55 11.7625 22.55 12.0375C22.55 12.3125 22.45 12.55 22.25 12.75L16.25 18.725C14.7333 20.2417 12.9083 21 10.775 21C8.64167 21 6.81667 20.2417 5.3 18.725Z" fill="var(--fill-0, white)"/>
</g>
</g>
</svg>
